# xmcd CD database file
#
# Track frame offsets:
#	150
#	28047
#	55301
#	88235
#	114081
#	129783
#	158473
#	187162
#
# Disc length: 2791 seconds
#
# Revision: 0
# Processed by: cddbd v1.5.2PL0 Copyright (c) Steve Scherf et al.
# Submitted via: CDex 1.70beta2
#
DISCID=5d0ae508
DTITLE=REMI CHARMASSON QUINTET - The Wind Cries Jimi
DYEAR=2013
DGENRE=Jazz
TTITLE0=Little Wing
TTITLE1=One Rainy Wish
TTITLE2=Burning Of The Midnight Lamp
TTITLE3=Voodoo Chile
TTITLE4=Wait Until Tomorrow
TTITLE5=Them Changes
TTITLE6=The Wind Cries Mary
TTITLE7=People Get Ready
EXTD=YEAR: 2013
EXTT0=
EXTT1=
EXTT2=
EXTT3=
EXTT4=
EXTT5=
EXTT6=
EXTT7=
PLAYORDER=
